{"glyphs":{"0":{"ha":1128,"x_min":81,"x_max":1046,"o":"m 309 738 l 659 738 l 309 388 l 309 738 m 819 227 l 469 227 l 819 578 l 819 227 m 876 0 q 997 50 947 0 q 1046 170 1046 100 l 1046 795 q 997 916 1046 865 q 876 965 947 965 l 252 965 q 132 916 181 965 q 81 795 81 865 l 81 170 q 132 50 81 100 q 252 0 181 0 l 876 0 z "},"1":{"ha":722,"x_min":81,"x_max":641,"o":"m 426 965 l 81 648 l 235 481 l 414 646 l 414 0 l 641 0 l 641 965 l 426 965 z "},"2":{"ha":1187,"x_min":81,"x_max":1105,"o":"m 1044 694 q 1059 872 1105 779 q 907 965 1011 965 l 81 965 l 81 653 l 309 653 l 309 738 l 751 738 l 81 166 l 81 0 l 1075 0 l 1075 227 l 503 227 l 1036 684 l 1044 694 z "},"3":{"ha":1128,"x_min":81,"x_max":1046,"o":"m 81 965 l 81 738 l 819 738 l 819 596 l 81 596 l 81 369 l 819 369 l 819 227 l 81 227 l 81 0 l 819 0 q 980 66 913 0 q 1046 227 1046 133 l 1046 738 q 980 899 1046 832 q 819 965 913 965 l 81 965 z "},"4":{"ha":1128,"x_min":81,"x_max":1046,"o":"m 81 965 l 81 284 l 593 284 l 593 0 l 819 0 l 819 284 l 1046 284 l 1046 511 l 819 511 l 819 738 l 593 738 l 593 511 l 309 511 l 309 965 l 81 965 z "},"5":{"ha":1128,"x_min":81,"x_max":1046,"o":"m 81 369 l 819 369 l 819 227 l 81 227 l 81 0 l 876 0 q 997 50 947 0 q 1046 170 1046 100 l 1046 426 q 997 547 1046 496 q 876 596 947 596 l 309 596 l 309 738 l 1046 738 l 1046 965 l 81 965 l 81 369 z "},"6":{"ha":1128,"x_min":81,"x_max":1046,"o":"m 309 369 l 819 369 l 819 227 l 309 227 l 309 369 m 81 170 q 132 50 81 100 q 252 0 181 0 l 876 0 q 997 50 947 0 q 1046 170 1046 100 l 1046 426 q 997 547 1046 496 q 876 596 947 596 l 309 596 l 309 738 l 1046 738 l 1046 965 l 252 965 q 132 916 181 965 q 81 795 81 865 l 81 170 z "},"7":{"ha":1128,"x_min":81,"x_max":1047,"o":"m 81 965 l 81 738 l 706 738 l 397 0 l 643 0 l 1047 965 l 81 965 z "},"8":{"ha":1128,"x_min":81,"x_max":1046,"o":"m 819 227 l 309 227 l 309 369 l 819 369 l 819 227 m 309 738 l 820 738 l 820 596 l 309 596 l 309 738 m 252 965 q 132 916 181 965 q 81 795 81 865 l 81 596 q 112 483 81 535 q 81 369 81 430 l 81 170 q 132 50 81 100 q 252 0 181 0 l 876 0 q 997 50 947 0 q 1046 170 1046 100 l 1046 369 q 1016 483 1046 430 q 1046 596 1046 535 l 1046 795 q 997 916 1046 865 q 876 965 947 965 l 252 965 z "},"9":{"ha":1128,"x_min":81,"x_max":1046,"o":"m 819 596 l 309 596 l 309 738 l 819 738 l 819 596 m 252 965 q 132 916 181 965 q 81 795 81 865 l 81 539 q 132 419 81 469 q 252 369 181 369 l 819 369 l 819 0 l 1046 0 l 1046 795 q 997 916 1046 865 q 876 965 947 965 l 252 965 z "},"\u0000":{"ha":0,"x_min":0,"x_max":0,"o":""}," ":{"ha":345,"x_min":0,"x_max":0,"o":""},"!":{"ha":390,"x_min":81,"x_max":309,"o":"m 81 0 l 309 0 l 309 227 l 81 227 l 81 0 m 81 284 l 309 284 l 309 965 l 81 965 l 81 284 z "},"\"":{"ha":418,"x_min":81,"x_max":337,"o":"m 81 739 l 195 739 l 195 966 l 81 966 l 81 739 m 223 739 l 337 739 l 337 966 l 223 966 l 223 739 z "},"#":{"ha":1156,"x_min":81,"x_max":1075,"o":"m 749 965 l 716 781 l 546 781 l 578 965 l 351 965 l 319 781 l 110 781 l 110 553 l 279 553 l 254 412 l 81 412 l 81 184 l 214 184 l 181 0 l 408 0 l 440 184 l 611 184 l 578 0 l 806 0 l 838 184 l 1046 184 l 1046 412 l 878 412 l 903 553 l 1075 553 l 1075 781 l 943 781 l 976 965 l 749 965 m 506 553 l 676 553 l 651 412 l 481 412 l 506 553 z "},"$":{"ha":1156,"x_min":81,"x_max":1075,"o":"m 692 0 l 692 85 l 905 85 q 1025 135 975 85 q 1075 256 1075 185 l 1075 455 q 1044 544 1075 505 q 964 593 1013 583 l 951 596 l 309 597 l 309 653 l 1075 653 l 1075 710 q 1025 830 1075 780 q 905 880 975 880 l 692 880 l 692 965 l 465 965 l 465 880 l 252 880 q 132 830 181 880 q 81 710 81 780 l 81 511 q 113 422 81 460 q 193 372 144 383 l 205 370 l 848 369 l 848 313 l 81 313 l 81 256 q 132 135 81 185 q 252 85 181 85 l 465 85 l 465 0 l 692 0 z "},"%":{"ha":1015,"x_min":81,"x_max":933,"o":"m 81 483 l 309 483 l 309 710 l 81 710 l 81 483 m 706 256 l 933 256 l 933 483 l 706 483 l 706 256 m 479 965 l 309 0 l 536 0 l 706 965 l 479 965 z "},"&":{"ha":1185,"x_min":81,"x_max":1103,"o":"m 309 369 l 791 369 l 791 227 l 309 227 l 309 369 m 1019 0 l 1019 369 l 1103 369 l 1103 596 l 1019 596 l 1019 682 l 791 682 l 791 596 l 309 596 l 309 738 l 905 738 l 905 965 l 309 965 q 148 899 214 965 q 81 738 81 832 l 81 596 q 112 483 81 535 q 81 369 81 430 l 81 227 q 148 66 81 133 q 309 0 214 0 l 1019 0 z "},"'":{"ha":276,"x_min":81,"x_max":195,"o":"m 81 739 l 195 739 l 195 966 l 81 966 l 81 739 z "},"(":{"ha":475,"x_min":81,"x_max":394,"o":"m 309 1020 l 394 1020 l 394 1247 l 252 1247 q 132 1197 181 1247 q 81 1077 81 1147 l 81 -116 q 132 -236 81 -186 q 252 -286 181 -286 l 394 -286 l 394 -59 l 309 -59 l 309 1020 z "},")":{"ha":475,"x_min":81,"x_max":394,"o":"m 394 1077 q 344 1197 394 1147 q 223 1247 294 1247 l 81 1247 l 81 1020 l 167 1020 l 167 -59 l 81 -59 l 81 -286 l 223 -286 q 344 -236 294 -286 q 394 -116 394 -186 l 394 1077 z "},"+":{"ha":1128,"x_min":81,"x_max":1046,"o":"m 450 965 l 450 596 l 81 596 l 81 369 l 450 369 l 450 0 l 677 0 l 677 369 l 1046 369 l 1046 596 l 677 596 l 677 965 l 450 965 z "},",":{"ha":475,"x_min":81,"x_max":394,"o":"m 394 227 l 167 227 l 167 -57 l 81 -57 l 81 -284 l 223 -284 q 344 -234 294 -284 q 394 -114 394 -184 l 394 227 z "},"-":{"ha":1128,"x_min":81,"x_max":1046,"o":"m 81 368 l 1046 368 l 1046 595 l 81 595 l 81 368 z "},".":{"ha":390,"x_min":81,"x_max":309,"o":"m 81 0 l 309 0 l 309 227 l 81 227 l 81 0 z "},"/":{"ha":560,"x_min":81,"x_max":479,"o":"m 252 965 l 81 0 l 309 0 l 479 965 l 252 965 z "},":":{"ha":390,"x_min":81,"x_max":309,"o":"m 81 0 l 309 0 l 309 227 l 81 227 l 81 0 m 81 369 l 309 369 l 309 596 l 81 596 l 81 369 z "},";":{"ha":475,"x_min":81,"x_max":394,"o":"m 167 369 l 394 369 l 394 596 l 167 596 l 167 369 m 394 227 l 167 227 l 167 -57 l 81 -57 l 81 -284 l 223 -284 q 344 -234 294 -284 q 394 -114 394 -184 l 394 227 z "},"=":{"ha":1128,"x_min":81,"x_max":1046,"o":"m 81 200 l 1046 200 l 1046 427 l 81 427 l 81 200 m 81 541 l 1046 541 l 1046 768 l 81 768 l 81 541 z "},"?":{"ha":1128,"x_min":81,"x_max":1046,"o":"m 394 0 l 621 0 l 621 227 l 394 227 l 394 0 m 81 738 l 819 738 l 819 596 l 394 596 l 394 284 l 621 284 l 621 369 l 876 369 q 997 419 947 369 q 1046 539 1046 469 l 1046 795 q 997 916 1046 865 q 876 965 947 965 l 81 965 l 81 738 z "},"@":{"ha":1213,"x_min":81,"x_max":1132,"o":"m 507 426 l 507 539 l 706 539 l 706 426 l 507 426 m 223 965 q 123 924 165 965 q 81 823 81 882 l 81 142 q 123 41 81 83 q 223 0 165 0 l 621 0 l 621 170 l 252 170 l 252 795 l 962 795 l 962 170 l 876 170 l 876 568 q 835 668 876 627 q 734 710 793 710 l 479 710 q 378 668 420 710 q 337 568 337 627 l 337 397 q 378 297 337 339 q 479 256 420 256 l 706 256 l 706 0 l 990 0 q 1090 41 1048 0 q 1132 142 1132 83 l 1132 823 q 1090 924 1132 882 q 990 965 1048 965 l 223 965 z "},"A":{"ha":1340,"x_min":81,"x_max":1259,"o":"m 532 965 l 81 0 l 330 0 l 425 199 l 912 199 l 1010 0 l 1259 0 l 795 965 l 532 965 m 664 699 l 799 426 l 533 426 l 664 699 z "},"B":{"ha":1156,"x_min":81,"x_max":1075,"o":"m 309 369 l 848 369 l 848 227 l 309 227 l 309 369 m 309 738 l 848 738 l 848 596 l 309 596 l 309 738 m 1075 369 q 1044 483 1075 430 q 1075 596 1075 535 l 1075 738 q 1008 899 1075 832 q 848 965 942 965 l 81 965 l 81 0 l 848 0 q 1008 66 942 0 q 1075 227 1075 133 l 1075 369 z "},"C":{"ha":1156,"x_min":81,"x_max":1075,"o":"m 905 0 q 1025 50 975 0 q 1075 170 1075 100 l 1075 313 l 848 313 l 848 227 l 309 227 l 309 738 l 848 738 l 848 653 l 1075 653 l 1075 795 q 1025 916 1075 865 q 905 965 975 965 l 252 965 q 132 916 181 965 q 81 795 81 865 l 81 170 q 132 50 81 100 q 252 0 181 0 l 905 0 z "},"D":{"ha":1128,"x_min":81,"x_max":1046,"o":"m 819 227 l 309 227 l 309 738 l 819 738 l 819 227 m 1046 795 q 997 916 1046 865 q 876 965 947 965 l 81 965 l 81 0 l 876 0 q 997 50 947 0 q 1046 170 1046 100 l 1046 795 z "},"E":{"ha":1128,"x_min":81,"x_max":1046,"o":"m 81 369 l 1046 369 l 1046 596 l 81 596 l 81 369 m 81 738 l 1046 738 l 1046 965 l 81 965 l 81 738 m 81 0 l 1046 0 l 1046 227 l 81 227 l 81 0 z "},"F":{"ha":1128,"x_min":81,"x_max":1046,"o":"m 81 965 l 81 0 l 309 0 l 309 369 l 1046 369 l 1046 596 l 309 596 l 309 738 l 1046 738 l 1046 965 l 81 965 z "},"G":{"ha":1156,"x_min":81,"x_max":1075,"o":"m 905 0 q 1025 50 975 0 q 1075 170 1075 100 l 1075 596 l 536 596 l 536 369 l 848 369 l 848 227 l 309 227 l 309 738 l 848 738 l 848 653 l 1075 653 l 1075 795 q 1025 916 1075 865 q 905 965 975 965 l 252 965 q 132 916 181 965 q 81 795 81 865 l 81 170 q 132 50 81 100 q 252 0 181 0 l 905 0 z "},"H":{"ha":1185,"x_min":81,"x_max":1103,"o":"m 876 965 l 876 596 l 309 596 l 309 965 l 81 965 l 81 0 l 309 0 l 309 369 l 876 369 l 876 0 l 1103 0 l 1103 965 l 876 965 z "},"I":{"ha":390,"x_min":81,"x_max":309,"o":"m 81 0 l 309 0 l 309 965 l 81 965 l 81 0 z "},"J":{"ha":986,"x_min":81,"x_max":905,"o":"m 734 0 q 854 50 805 0 q 905 170 905 100 l 905 965 l 677 965 l 677 227 l 309 227 l 309 340 l 81 340 l 81 170 q 132 50 81 100 q 252 0 181 0 l 734 0 z "},"K":{"ha":1171,"x_min":81,"x_max":1089,"o":"m 741 965 l 309 593 l 309 965 l 81 965 l 81 0 l 309 0 l 309 292 l 465 428 l 794 0 l 1081 0 l 637 576 l 1089 965 l 741 965 z "},"L":{"ha":1043,"x_min":81,"x_max":962,"o":"m 81 965 l 81 0 l 962 0 l 962 227 l 309 227 l 309 965 l 81 965 z "},"M":{"ha":1412,"x_min":81,"x_max":1331,"o":"m 1095 965 l 706 468 l 317 965 l 81 965 l 81 0 l 309 0 l 309 608 l 706 100 l 1103 608 l 1103 0 l 1331 0 l 1331 965 l 1095 965 z "},"N":{"ha":1185,"x_min":81,"x_max":1103,"o":"m 876 965 l 876 336 l 338 965 l 81 965 l 81 0 l 309 0 l 309 630 l 847 0 l 1103 0 l 1103 965 l 876 965 z "},"O":{"ha":1128,"x_min":81,"x_max":1046,"o":"m 309 738 l 819 738 l 819 227 l 309 227 l 309 738 m 876 0 q 997 50 947 0 q 1046 170 1046 100 l 1046 795 q 997 916 1046 865 q 876 965 947 965 l 252 965 q 132 916 181 965 q 81 795 81 865 l 81 170 q 132 50 81 100 q 252 0 181 0 l 876 0 z "},"P":{"ha":1100,"x_min":81,"x_max":1019,"o":"m 309 738 l 791 738 l 791 596 l 309 596 l 309 738 m 309 369 l 848 369 q 968 419 918 369 q 1019 539 1019 469 l 1019 795 q 968 916 1019 865 q 848 965 918 965 l 81 965 l 81 0 l 309 0 l 309 369 z "},"Q":{"ha":1128,"x_min":81,"x_max":1046,"o":"m 309 739 l 819 739 l 819 227 l 764 227 l 682 397 l 425 397 l 509 227 l 309 227 l 309 739 m 622 0 l 713 -184 l 962 -184 l 873 0 l 876 0 q 997 50 947 0 q 1046 170 1046 100 l 1046 795 q 997 916 1046 865 q 876 966 947 966 l 252 966 q 132 916 181 966 q 81 795 81 865 l 81 170 q 132 50 81 100 q 252 0 181 0 l 622 0 z "},"R":{"ha":1100,"x_min":81,"x_max":1019,"o":"m 791 596 l 309 596 l 309 738 l 791 738 l 791 596 m 808 369 l 848 369 q 968 419 918 369 q 1019 539 1019 469 l 1019 795 q 968 916 1019 865 q 848 965 918 965 l 81 965 l 81 0 l 309 0 l 309 369 l 555 369 l 754 0 l 1002 0 l 808 369 z "},"S":{"ha":1156,"x_min":81,"x_max":1075,"o":"m 1075 455 q 1044 544 1075 505 q 964 593 1013 583 l 951 596 l 309 597 l 309 738 l 848 738 l 848 653 l 1075 653 l 1075 795 q 1025 916 1075 865 q 905 965 975 965 l 252 965 q 132 916 181 965 q 81 795 81 865 l 81 511 q 113 422 81 460 q 193 372 144 383 l 205 370 l 848 369 l 848 227 l 309 227 l 309 313 l 81 313 l 81 170 q 132 50 81 100 q 252 0 181 0 l 905 0 q 1025 50 975 0 q 1075 170 1075 100 l 1075 455 z "},"T":{"ha":1128,"x_min":81,"x_max":1046,"o":"m 81 965 l 81 738 l 450 738 l 450 0 l 677 0 l 677 738 l 1046 738 l 1046 965 l 81 965 z "},"U":{"ha":1128,"x_min":81,"x_max":1046,"o":"m 876 0 q 997 50 947 0 q 1046 170 1046 100 l 1046 965 l 819 965 l 819 227 l 309 227 l 309 965 l 81 965 l 81 170 q 132 50 81 100 q 252 0 181 0 l 876 0 z "},"V":{"ha":1340,"x_min":81,"x_max":1259,"o":"m 1010 965 l 676 267 l 330 965 l 81 965 l 545 0 l 808 0 l 1259 965 l 1010 965 z "},"W":{"ha":2129,"x_min":81,"x_max":2048,"o":"m 1801 965 l 1495 267 l 1190 965 l 940 965 l 635 267 l 330 965 l 81 965 l 504 0 l 766 0 l 1065 684 l 1364 0 l 1626 0 l 2048 965 l 1801 965 z "},"X":{"ha":1150,"x_min":81,"x_max":1069,"o":"m 792 965 l 575 653 l 358 965 l 81 965 l 417 483 l 81 0 l 358 0 l 575 312 l 792 0 l 1069 0 l 733 483 l 1069 965 l 792 965 z "},"Y":{"ha":1128,"x_min":81,"x_max":1046,"o":"m 876 0 q 992 48 945 0 q 1046 199 1046 103 l 1046 965 l 819 965 l 819 596 l 309 596 l 309 965 l 81 965 l 81 539 q 132 419 81 469 q 252 369 181 369 l 819 369 l 819 227 l 309 227 l 309 313 l 81 313 l 81 170 q 132 50 81 100 q 252 0 181 0 l 876 0 z "},"Z":{"ha":1185,"x_min":81,"x_max":1103,"o":"m 81 965 l 81 738 l 727 738 l 81 214 l 81 0 l 1103 0 l 1103 227 l 458 227 l 1103 751 l 1103 965 l 81 965 z "},"[":{"ha":475,"x_min":81,"x_max":394,"o":"m 81 1249 l 81 -284 l 394 -284 l 394 -57 l 309 -57 l 309 1022 l 394 1022 l 394 1249 l 81 1249 z "},"]":{"ha":475,"x_min":81,"x_max":394,"o":"m 81 1249 l 81 1021 l 167 1021 l 167 -58 l 81 -58 l 81 -285 l 394 -285 l 394 1249 l 81 1249 z "},"_":{"ha":1128,"x_min":81,"x_max":1046,"o":"m 81 0 l 1046 0 l 1046 227 l 81 227 l 81 0 z "},"`":{"ha":475,"x_min":81,"x_max":394,"o":"m 394 736 l 394 1077 q 344 1198 394 1147 q 223 1248 294 1248 l 81 1248 l 81 1021 l 167 1021 l 167 736 l 394 736 z "},"a":{"ha":1340,"x_min":81,"x_max":1259,"o":"m 532 965 l 81 0 l 330 0 l 664 699 l 1010 0 l 1259 0 l 795 965 l 532 965 z "},"b":{"ha":1156,"x_min":81,"x_max":1075,"o":"m 309 369 l 848 369 l 848 227 l 309 227 l 309 369 m 309 738 l 848 738 l 848 596 l 309 596 l 309 738 m 1075 369 q 1044 483 1075 430 q 1075 596 1075 535 l 1075 738 q 1008 899 1075 832 q 848 965 942 965 l 81 965 l 81 0 l 848 0 q 1008 66 942 0 q 1075 227 1075 133 l 1075 369 z "},"c":{"ha":1156,"x_min":81,"x_max":1075,"o":"m 905 0 q 1025 50 975 0 q 1075 170 1075 100 l 1075 313 l 848 313 l 848 227 l 309 227 l 309 738 l 848 738 l 848 653 l 1075 653 l 1075 795 q 1025 916 1075 865 q 905 965 975 965 l 252 965 q 132 916 181 965 q 81 795 81 865 l 81 170 q 132 50 81 100 q 252 0 181 0 l 905 0 z "},"d":{"ha":1128,"x_min":81,"x_max":1046,"o":"m 819 227 l 309 227 l 309 738 l 819 738 l 819 227 m 1046 795 q 997 916 1046 865 q 876 965 947 965 l 81 965 l 81 0 l 876 0 q 997 50 947 0 q 1046 170 1046 100 l 1046 795 z "},"e":{"ha":1128,"x_min":81,"x_max":1046,"o":"m 81 965 l 81 0 l 1046 0 l 1046 227 l 309 227 l 309 369 l 1046 369 l 1046 596 l 309 596 l 309 738 l 1046 738 l 1046 965 l 81 965 z "},"f":{"ha":1128,"x_min":81,"x_max":1046,"o":"m 81 965 l 81 0 l 309 0 l 309 369 l 1046 369 l 1046 596 l 309 596 l 309 738 l 1046 738 l 1046 965 l 81 965 z "},"g":{"ha":1156,"x_min":81,"x_max":1075,"o":"m 905 0 q 1025 50 975 0 q 1075 170 1075 100 l 1075 596 l 536 596 l 536 369 l 848 369 l 848 227 l 309 227 l 309 738 l 848 738 l 848 653 l 1075 653 l 1075 795 q 1025 916 1075 865 q 905 965 975 965 l 252 965 q 132 916 181 965 q 81 795 81 865 l 81 170 q 132 50 81 100 q 252 0 181 0 l 905 0 z "},"h":{"ha":1185,"x_min":81,"x_max":1103,"o":"m 876 965 l 876 596 l 309 596 l 309 965 l 81 965 l 81 0 l 309 0 l 309 369 l 876 369 l 876 0 l 1103 0 l 1103 965 l 876 965 z "},"i":{"ha":390,"x_min":81,"x_max":309,"o":"m 81 0 l 309 0 l 309 965 l 81 965 l 81 0 z "},"j":{"ha":986,"x_min":81,"x_max":905,"o":"m 734 0 q 854 50 805 0 q 905 170 905 100 l 905 965 l 677 965 l 677 227 l 309 227 l 309 340 l 81 340 l 81 170 q 132 50 81 100 q 252 0 181 0 l 734 0 z "},"k":{"ha":1171,"x_min":81,"x_max":1089,"o":"m 741 965 l 309 593 l 309 965 l 81 965 l 81 0 l 309 0 l 309 292 l 465 428 l 794 0 l 1081 0 l 637 576 l 1089 965 l 741 965 z "},"l":{"ha":1043,"x_min":81,"x_max":962,"o":"m 81 965 l 81 0 l 962 0 l 962 227 l 309 227 l 309 965 l 81 965 z "},"m":{"ha":1412,"x_min":81,"x_max":1331,"o":"m 1095 965 l 706 468 l 317 965 l 81 965 l 81 0 l 309 0 l 309 608 l 706 100 l 1103 608 l 1103 0 l 1331 0 l 1331 965 l 1095 965 z "},"n":{"ha":1185,"x_min":81,"x_max":1103,"o":"m 876 965 l 876 336 l 338 965 l 81 965 l 81 0 l 309 0 l 309 630 l 847 0 l 1103 0 l 1103 965 l 876 965 z "},"o":{"ha":1128,"x_min":81,"x_max":1046,"o":"m 309 738 l 659 738 l 309 388 l 309 738 m 819 227 l 469 227 l 819 578 l 819 227 m 876 0 q 997 50 947 0 q 1046 170 1046 100 l 1046 795 q 997 916 1046 865 q 876 965 947 965 l 252 965 q 132 916 181 965 q 81 795 81 865 l 81 170 q 132 50 81 100 q 252 0 181 0 l 876 0 z "},"p":{"ha":1100,"x_min":81,"x_max":1019,"o":"m 309 738 l 791 738 l 791 596 l 309 596 l 309 738 m 309 369 l 848 369 q 968 419 918 369 q 1019 539 1019 469 l 1019 795 q 968 916 1019 865 q 848 965 918 965 l 81 965 l 81 0 l 309 0 l 309 369 z "},"q":{"ha":1128,"x_min":81,"x_max":1046,"o":"m 309 739 l 819 739 l 819 227 l 764 227 l 682 397 l 425 397 l 509 227 l 309 227 l 309 739 m 622 0 l 713 -184 l 962 -184 l 873 0 l 876 0 q 997 50 947 0 q 1046 170 1046 100 l 1046 795 q 997 916 1046 865 q 876 966 947 966 l 252 966 q 132 916 181 966 q 81 795 81 865 l 81 170 q 132 50 81 100 q 252 0 181 0 l 622 0 z "},"r":{"ha":1100,"x_min":81,"x_max":1019,"o":"m 791 596 l 309 596 l 309 738 l 791 738 l 791 596 m 808 369 l 848 369 q 968 419 918 369 q 1019 539 1019 469 l 1019 795 q 968 916 1019 865 q 848 965 918 965 l 81 965 l 81 0 l 309 0 l 309 369 l 555 369 l 754 0 l 1002 0 l 808 369 z "},"s":{"ha":1156,"x_min":81,"x_max":1075,"o":"m 1075 455 q 1044 544 1075 505 q 964 593 1013 583 l 951 596 l 309 597 l 309 738 l 848 738 l 848 653 l 1075 653 l 1075 795 q 1025 916 1075 865 q 905 965 975 965 l 252 965 q 132 916 181 965 q 81 795 81 865 l 81 511 q 113 422 81 460 q 193 372 144 383 l 205 370 l 848 369 l 848 227 l 309 227 l 309 313 l 81 313 l 81 170 q 132 50 81 100 q 252 0 181 0 l 905 0 q 1025 50 975 0 q 1075 170 1075 100 l 1075 455 z "},"t":{"ha":1128,"x_min":81,"x_max":1046,"o":"m 81 965 l 81 738 l 450 738 l 450 0 l 677 0 l 677 738 l 1046 738 l 1046 965 l 81 965 z "},"u":{"ha":1128,"x_min":81,"x_max":1046,"o":"m 876 0 q 997 50 947 0 q 1046 170 1046 100 l 1046 965 l 819 965 l 819 227 l 309 227 l 309 965 l 81 965 l 81 170 q 132 50 81 100 q 252 0 181 0 l 876 0 z "},"v":{"ha":1340,"x_min":81,"x_max":1259,"o":"m 1010 965 l 676 267 l 330 965 l 81 965 l 545 0 l 808 0 l 1259 965 l 1010 965 z "},"w":{"ha":2129,"x_min":81,"x_max":2048,"o":"m 1801 965 l 1495 267 l 1190 965 l 940 965 l 635 267 l 330 965 l 81 965 l 504 0 l 766 0 l 1065 684 l 1364 0 l 1626 0 l 2048 965 l 1801 965 z "},"x":{"ha":1150,"x_min":81,"x_max":1069,"o":"m 792 965 l 575 653 l 358 965 l 81 965 l 417 483 l 81 0 l 358 0 l 575 312 l 792 0 l 1069 0 l 733 483 l 1069 965 l 792 965 z "},"y":{"ha":1150,"x_min":81,"x_max":1069,"o":"m 792 965 l 575 653 l 358 965 l 81 965 l 462 418 l 462 0 l 689 0 l 689 418 l 1069 965 l 792 965 z "},"z":{"ha":1185,"x_min":81,"x_max":1103,"o":"m 81 965 l 81 738 l 727 738 l 81 214 l 81 0 l 1103 0 l 1103 227 l 458 227 l 1103 751 l 1103 965 l 81 965 z "},"À":{"ha":1340,"x_min":81,"x_max":1259,"o":"m 532 965 l 81 0 l 330 0 l 664 699 l 1010 0 l 1259 0 l 795 965 l 532 965 m 646 1265 l 566 1184 l 694 1057 l 774 1137 l 646 1265 z "},"Á":{"ha":1340,"x_min":81,"x_max":1259,"o":"m 545 965 l 81 0 l 330 0 l 676 699 l 1010 0 l 1259 0 l 808 965 l 545 965 m 694 1265 l 566 1137 l 646 1057 l 774 1184 l 694 1265 z "},"Â":{"ha":1340,"x_min":81,"x_max":1259,"o":"m 545 965 l 81 0 l 330 0 l 676 699 l 1010 0 l 1259 0 l 808 965 l 545 965 m 670 1278 l 516 1124 l 597 1044 l 670 1117 l 743 1044 l 824 1124 l 670 1278 z "},"Ã":{"ha":1340,"x_min":81,"x_max":1259,"o":"m 545 965 l 81 0 l 330 0 l 676 699 l 1010 0 l 1259 0 l 808 965 l 545 965 m 562 1246 q 443 1147 484 1231 l 545 1097 l 545 1097 q 584 1135 562 1131 q 622 1118 599 1138 q 737 1072 675 1072 q 756 1073 747 1072 q 892 1159 839 1083 l 800 1225 q 742 1185 775 1190 q 696 1204 721 1183 q 562 1246 631 1261 z "},"Ä":{"ha":1340,"x_min":81,"x_max":1259,"o":"m 545 965 l 81 0 l 330 0 l 676 699 l 1010 0 l 1259 0 l 808 965 l 545 965 m 514 1104 l 627 1104 l 627 1217 l 514 1217 l 514 1104 m 713 1104 l 826 1104 l 826 1217 l 713 1217 l 713 1104 z "},"Å":{"ha":1340,"x_min":81,"x_max":1259,"o":"m 679 1087 q 719 1071 702 1087 q 735 1031 735 1054 q 719 991 735 1007 q 679 974 702 974 q 638 991 655 974 q 622 1031 622 1007 q 638 1071 622 1054 q 679 1087 655 1087 m 849 1031 q 799 1151 849 1101 q 679 1201 749 1201 q 558 1151 608 1201 q 508 1031 508 1101 q 534 941 508 982 l 81 0 l 330 0 l 676 699 l 1010 0 l 1259 0 l 821 937 q 849 1031 849 979 z "},"Æ":{"ha":1567,"x_min":81,"x_max":1486,"o":"m 532 965 l 81 0 l 330 0 l 438 227 l 663 227 l 663 0 l 1486 0 l 1486 227 l 918 227 l 918 369 l 1486 369 l 1486 596 l 890 596 l 890 738 l 1486 738 l 1486 965 l 532 965 m 663 696 l 663 454 l 547 454 l 663 696 z "},"Ç":{"ha":1156,"x_min":81,"x_max":1075,"o":"m 252 966 q 132 916 181 966 q 81 795 81 865 l 81 171 q 132 50 81 100 q 252 0 181 0 l 479 0 l 479 -142 l 677 -142 l 677 0 l 905 0 q 1025 50 975 0 q 1075 171 1075 100 l 1075 313 l 848 313 l 848 227 l 309 227 l 309 739 l 848 739 l 848 653 l 1075 653 l 1075 795 q 1025 916 1075 865 q 905 966 975 966 l 252 966 z "},"È":{"ha":1128,"x_min":81,"x_max":1046,"o":"m 81 369 l 1046 369 l 1046 596 l 81 596 l 81 369 m 81 738 l 1046 738 l 1046 965 l 81 965 l 81 738 m 81 0 l 1046 0 l 1046 227 l 81 227 l 81 0 m 541 1265 l 460 1184 l 588 1057 l 668 1137 l 541 1265 z "},"É":{"ha":1128,"x_min":81,"x_max":1046,"o":"m 81 369 l 1046 369 l 1046 596 l 81 596 l 81 369 m 81 738 l 1046 738 l 1046 965 l 81 965 l 81 738 m 81 0 l 1046 0 l 1046 227 l 81 227 l 81 0 m 588 1265 l 460 1137 l 541 1057 l 668 1184 l 588 1265 z "},"Ê":{"ha":1128,"x_min":81,"x_max":1046,"o":"m 81 369 l 1046 369 l 1046 596 l 81 596 l 81 369 m 81 738 l 1046 738 l 1046 965 l 81 965 l 81 738 m 81 0 l 1046 0 l 1046 227 l 81 227 l 81 0 m 564 1278 l 410 1124 l 490 1044 l 564 1117 l 637 1044 l 718 1124 l 564 1278 z "},"Ë":{"ha":1128,"x_min":81,"x_max":1046,"o":"m 81 369 l 1046 369 l 1046 596 l 81 596 l 81 369 m 81 738 l 1046 738 l 1046 965 l 81 965 l 81 738 m 81 0 l 1046 0 l 1046 227 l 81 227 l 81 0 m 408 1104 l 522 1104 l 522 1217 l 408 1217 l 408 1104 m 606 1104 l 720 1104 l 720 1217 l 606 1217 l 606 1104 z "},"Ì":{"ha":390,"x_min":81,"x_max":309,"o":"m 81 0 l 309 0 l 309 965 l 81 965 l 81 0 m 171 1265 l 91 1184 l 218 1057 l 299 1137 l 171 1265 z "},"Í":{"ha":390,"x_min":81,"x_max":309,"o":"m 81 0 l 309 0 l 309 965 l 81 965 l 81 0 m 218 1265 l 91 1137 l 171 1057 l 299 1184 l 218 1265 z "},"Î":{"ha":470,"x_min":81,"x_max":389,"o":"m 121 0 l 349 0 l 349 965 l 121 965 l 121 0 m 235 1278 l 81 1124 l 161 1044 l 235 1117 l 309 1044 l 389 1124 l 235 1278 z "},"Ï":{"ha":475,"x_min":81,"x_max":394,"o":"m 124 0 l 351 0 l 351 965 l 124 965 l 124 0 m 81 1104 l 195 1104 l 195 1217 l 81 1217 l 81 1104 m 280 1104 l 394 1104 l 394 1217 l 280 1217 l 280 1104 z "},"Ð":{"ha":1213,"x_min":81,"x_max":1132,"o":"m 905 227 l 394 227 l 394 369 l 479 369 l 479 596 l 394 596 l 394 738 l 905 738 l 905 227 m 167 965 l 167 596 l 81 596 l 81 369 l 167 369 l 167 0 l 962 0 q 1082 50 1032 0 q 1132 170 1132 100 l 1132 795 q 1082 916 1132 865 q 962 965 1032 965 l 167 965 z "},"Ñ":{"ha":1185,"x_min":81,"x_max":1103,"o":"m 876 965 l 876 336 l 338 965 l 81 965 l 81 0 l 309 0 l 309 630 l 847 0 l 1103 0 l 1103 965 l 876 965 m 509 1135 q 547 1118 524 1138 q 662 1072 601 1072 q 681 1073 671 1072 q 817 1159 764 1083 l 725 1225 q 667 1185 700 1190 q 621 1204 646 1183 q 486 1246 555 1261 q 368 1147 408 1231 l 469 1097 l 469 1097 q 509 1135 487 1131 z "},"Ò":{"ha":1128,"x_min":81,"x_max":1046,"o":"m 819 227 l 469 227 l 819 578 l 819 227 m 309 738 l 659 738 l 309 388 l 309 738 m 252 965 q 132 916 181 965 q 81 795 81 865 l 81 170 q 132 50 81 100 q 252 0 181 0 l 876 0 q 997 50 947 0 q 1046 170 1046 100 l 1046 795 q 997 916 1046 865 q 876 965 947 965 l 252 965 m 668 1137 l 541 1265 l 460 1184 l 588 1057 l 668 1137 z "},"Ó":{"ha":1128,"x_min":81,"x_max":1046,"o":"m 819 227 l 469 227 l 819 578 l 819 227 m 309 738 l 659 738 l 309 388 l 309 738 m 252 965 q 132 916 181 965 q 81 795 81 865 l 81 170 q 132 50 81 100 q 252 0 181 0 l 876 0 q 997 50 947 0 q 1046 170 1046 100 l 1046 795 q 997 916 1046 865 q 876 965 947 965 l 252 965 m 541 1057 l 668 1184 l 588 1265 l 460 1137 l 541 1057 z "},"Ô":{"ha":1128,"x_min":81,"x_max":1046,"o":"m 819 227 l 469 227 l 819 578 l 819 227 m 309 738 l 659 738 l 309 388 l 309 738 m 252 965 q 132 916 181 965 q 81 795 81 865 l 81 170 q 132 50 81 100 q 252 0 181 0 l 876 0 q 997 50 947 0 q 1046 170 1046 100 l 1046 795 q 997 916 1046 865 q 876 965 947 965 l 252 965 m 490 1044 l 564 1117 l 637 1044 l 718 1124 l 564 1278 l 410 1124 l 490 1044 z "},"Õ":{"ha":1128,"x_min":81,"x_max":1046,"o":"m 819 227 l 469 227 l 819 578 l 819 227 m 309 738 l 659 738 l 309 388 l 309 738 m 252 965 q 132 916 181 965 q 81 795 81 865 l 81 170 q 132 50 81 100 q 252 0 181 0 l 876 0 q 997 50 947 0 q 1046 170 1046 100 l 1046 795 q 997 916 1046 865 q 876 965 947 965 l 252 965 m 481 1135 q 518 1118 495 1138 q 634 1072 572 1072 q 652 1073 643 1072 q 789 1159 735 1083 l 696 1225 q 639 1185 671 1190 q 593 1204 617 1183 q 458 1246 527 1261 q 339 1147 380 1231 l 441 1097 l 441 1097 q 481 1135 458 1131 z "},"Ö":{"ha":1128,"x_min":81,"x_max":1046,"o":"m 819 227 l 469 227 l 819 578 l 819 227 m 309 738 l 659 738 l 309 388 l 309 738 m 252 965 q 132 916 181 965 q 81 795 81 865 l 81 170 q 132 50 81 100 q 252 0 181 0 l 876 0 q 997 50 947 0 q 1046 170 1046 100 l 1046 795 q 997 916 1046 865 q 876 965 947 965 l 252 965 m 522 1217 l 408 1217 l 408 1104 l 522 1104 l 522 1217 m 606 1104 l 720 1104 l 720 1217 l 606 1217 l 606 1104 z "},"×":{"ha":1006,"x_min":81,"x_max":924,"o":"m 764 901 l 503 640 l 242 901 l 81 740 l 342 479 l 81 218 l 242 58 l 503 319 l 764 58 l 924 218 l 663 479 l 924 740 l 764 901 z "},"Ø":{"ha":1261,"x_min":81,"x_max":1180,"o":"m 886 227 l 543 227 l 711 403 l 886 578 l 886 227 m 375 738 l 719 738 l 549 562 l 375 388 l 375 738 m 1016 1047 l 937 965 l 318 965 q 198 916 248 965 q 148 795 148 865 l 148 170 q 150 146 148 159 l 81 75 l 245 -82 l 324 0 l 943 0 q 1063 50 1013 0 q 1114 170 1114 100 l 1114 795 q 1112 819 1114 807 l 1180 890 l 1016 1047 z "},"Ù":{"ha":1128,"x_min":81,"x_max":1046,"o":"m 819 227 l 309 227 l 309 965 l 81 965 l 81 170 q 132 50 81 100 q 252 0 181 0 l 876 0 q 997 50 947 0 q 1046 170 1046 100 l 1046 965 l 819 965 l 819 227 m 668 1137 l 541 1265 l 460 1184 l 588 1057 l 668 1137 z "},"Ú":{"ha":1128,"x_min":81,"x_max":1046,"o":"m 819 227 l 309 227 l 309 965 l 81 965 l 81 170 q 132 50 81 100 q 252 0 181 0 l 876 0 q 997 50 947 0 q 1046 170 1046 100 l 1046 965 l 819 965 l 819 227 m 541 1057 l 668 1184 l 588 1265 l 460 1137 l 541 1057 z "},"Û":{"ha":1128,"x_min":81,"x_max":1046,"o":"m 819 227 l 309 227 l 309 965 l 81 965 l 81 170 q 132 50 81 100 q 252 0 181 0 l 876 0 q 997 50 947 0 q 1046 170 1046 100 l 1046 965 l 819 965 l 819 227 m 410 1124 l 490 1044 l 564 1117 l 637 1044 l 718 1124 l 564 1278 l 410 1124 z "},"Ü":{"ha":1128,"x_min":81,"x_max":1046,"o":"m 819 227 l 309 227 l 309 965 l 81 965 l 81 170 q 132 50 81 100 q 252 0 181 0 l 876 0 q 997 50 947 0 q 1046 170 1046 100 l 1046 965 l 819 965 l 819 227 m 522 1217 l 408 1217 l 408 1104 l 522 1104 l 522 1217 m 606 1104 l 720 1104 l 720 1217 l 606 1217 l 606 1104 z "},"Ý":{"ha":1150,"x_min":81,"x_max":1069,"o":"m 792 965 l 575 653 l 358 965 l 81 965 l 462 418 l 462 0 l 689 0 l 689 418 l 1069 965 l 792 965 m 599 1265 l 471 1137 l 551 1057 l 680 1184 l 599 1265 z "},"Þ":{"ha":1128,"x_min":81,"x_max":1046,"o":"m 819 369 l 309 369 l 309 596 l 819 596 l 819 369 m 309 823 l 309 965 l 81 965 l 81 0 l 309 0 l 309 142 l 876 142 q 997 192 947 142 q 1046 313 1046 242 l 1046 653 q 997 773 1046 724 q 876 823 947 823 l 309 823 z "},"ß":{"ha":1156,"x_min":81,"x_max":1075,"o":"m 309 738 l 848 738 l 848 596 l 394 596 l 394 369 l 848 369 l 848 227 l 394 227 l 394 0 l 848 0 q 1008 66 942 0 q 1075 227 1075 133 l 1075 369 q 1044 483 1075 430 q 1075 596 1075 535 l 1075 738 q 1008 899 1075 832 q 848 965 942 965 l 309 965 q 148 899 214 965 q 81 738 81 832 l 81 0 l 309 0 l 309 738 z "},"à":{"ha":1340,"x_min":81,"x_max":1259,"o":"m 532 965 l 81 0 l 330 0 l 664 699 l 1010 0 l 1259 0 l 795 965 l 532 965 m 646 1265 l 566 1184 l 694 1057 l 774 1137 l 646 1265 z "},"á":{"ha":1340,"x_min":81,"x_max":1259,"o":"m 545 965 l 81 0 l 330 0 l 676 699 l 1010 0 l 1259 0 l 808 965 l 545 965 m 694 1265 l 566 1137 l 646 1057 l 774 1184 l 694 1265 z "},"â":{"ha":1340,"x_min":81,"x_max":1259,"o":"m 545 965 l 81 0 l 330 0 l 676 699 l 1010 0 l 1259 0 l 808 965 l 545 965 m 670 1278 l 516 1124 l 597 1044 l 670 1117 l 743 1044 l 824 1124 l 670 1278 z "},"ã":{"ha":1340,"x_min":81,"x_max":1259,"o":"m 545 965 l 81 0 l 330 0 l 676 699 l 1010 0 l 1259 0 l 808 965 l 545 965 m 562 1246 q 443 1147 484 1231 l 545 1097 l 545 1097 q 584 1135 562 1131 q 622 1118 599 1138 q 737 1072 675 1072 q 756 1073 747 1072 q 892 1159 839 1083 l 800 1225 q 742 1185 775 1190 q 696 1204 721 1183 q 562 1246 631 1261 z "},"ä":{"ha":1340,"x_min":81,"x_max":1259,"o":"m 545 965 l 81 0 l 330 0 l 676 699 l 1010 0 l 1259 0 l 808 965 l 545 965 m 514 1104 l 627 1104 l 627 1217 l 514 1217 l 514 1104 m 713 1104 l 826 1104 l 826 1217 l 713 1217 l 713 1104 z "},"å":{"ha":1340,"x_min":81,"x_max":1259,"o":"m 679 1087 q 719 1071 702 1087 q 735 1031 735 1054 q 719 991 735 1007 q 679 974 702 974 q 638 991 655 974 q 622 1031 622 1007 q 638 1071 622 1054 q 679 1087 655 1087 m 849 1031 q 799 1151 849 1101 q 679 1201 749 1201 q 558 1151 608 1201 q 508 1031 508 1101 q 534 941 508 982 l 81 0 l 330 0 l 676 699 l 1010 0 l 1259 0 l 821 937 q 849 1031 849 979 z "},"æ":{"ha":1567,"x_min":81,"x_max":1486,"o":"m 532 965 l 81 0 l 330 0 l 438 227 l 663 227 l 663 0 l 1486 0 l 1486 227 l 918 227 l 918 369 l 1486 369 l 1486 596 l 890 596 l 890 738 l 1486 738 l 1486 965 l 532 965 m 663 696 l 663 454 l 547 454 l 663 696 z "},"ç":{"ha":1156,"x_min":81,"x_max":1075,"o":"m 252 966 q 132 916 181 966 q 81 795 81 865 l 81 171 q 132 50 81 100 q 252 0 181 0 l 479 0 l 479 -142 l 677 -142 l 677 0 l 905 0 q 1025 50 975 0 q 1075 171 1075 100 l 1075 313 l 848 313 l 848 227 l 309 227 l 309 739 l 848 739 l 848 653 l 1075 653 l 1075 795 q 1025 916 1075 865 q 905 966 975 966 l 252 966 z "},"è":{"ha":1128,"x_min":81,"x_max":1046,"o":"m 81 369 l 1046 369 l 1046 596 l 81 596 l 81 369 m 81 738 l 1046 738 l 1046 965 l 81 965 l 81 738 m 81 0 l 1046 0 l 1046 227 l 81 227 l 81 0 m 541 1265 l 460 1184 l 588 1057 l 668 1137 l 541 1265 z "},"é":{"ha":1128,"x_min":81,"x_max":1046,"o":"m 81 369 l 1046 369 l 1046 596 l 81 596 l 81 369 m 81 738 l 1046 738 l 1046 965 l 81 965 l 81 738 m 81 0 l 1046 0 l 1046 227 l 81 227 l 81 0 m 588 1265 l 460 1137 l 541 1057 l 668 1184 l 588 1265 z "},"ê":{"ha":1128,"x_min":81,"x_max":1046,"o":"m 81 369 l 1046 369 l 1046 596 l 81 596 l 81 369 m 81 738 l 1046 738 l 1046 965 l 81 965 l 81 738 m 81 0 l 1046 0 l 1046 227 l 81 227 l 81 0 m 564 1278 l 410 1124 l 490 1044 l 564 1117 l 637 1044 l 718 1124 l 564 1278 z "},"ë":{"ha":1128,"x_min":81,"x_max":1046,"o":"m 81 369 l 1046 369 l 1046 596 l 81 596 l 81 369 m 81 738 l 1046 738 l 1046 965 l 81 965 l 81 738 m 81 0 l 1046 0 l 1046 227 l 81 227 l 81 0 m 408 1104 l 522 1104 l 522 1217 l 408 1217 l 408 1104 m 606 1104 l 720 1104 l 720 1217 l 606 1217 l 606 1104 z "},"ì":{"ha":390,"x_min":81,"x_max":309,"o":"m 81 0 l 309 0 l 309 965 l 81 965 l 81 0 m 171 1265 l 91 1184 l 218 1057 l 299 1137 l 171 1265 z "},"í":{"ha":390,"x_min":81,"x_max":309,"o":"m 81 0 l 309 0 l 309 965 l 81 965 l 81 0 m 218 1265 l 91 1137 l 171 1057 l 299 1184 l 218 1265 z "},"î":{"ha":470,"x_min":81,"x_max":389,"o":"m 121 0 l 349 0 l 349 965 l 121 965 l 121 0 m 235 1278 l 81 1124 l 161 1044 l 235 1117 l 309 1044 l 389 1124 l 235 1278 z "},"ï":{"ha":475,"x_min":81,"x_max":394,"o":"m 124 0 l 351 0 l 351 965 l 124 965 l 124 0 m 81 1104 l 195 1104 l 195 1217 l 81 1217 l 81 1104 m 280 1104 l 394 1104 l 394 1217 l 280 1217 l 280 1104 z "},"ð":{"ha":1213,"x_min":81,"x_max":1132,"o":"m 905 227 l 394 227 l 394 369 l 479 369 l 479 596 l 394 596 l 394 738 l 905 738 l 905 227 m 167 965 l 167 596 l 81 596 l 81 369 l 167 369 l 167 0 l 962 0 q 1082 50 1032 0 q 1132 170 1132 100 l 1132 795 q 1082 916 1132 865 q 962 965 1032 965 l 167 965 z "},"ñ":{"ha":1185,"x_min":81,"x_max":1103,"o":"m 876 965 l 876 336 l 338 965 l 81 965 l 81 0 l 309 0 l 309 630 l 847 0 l 1103 0 l 1103 965 l 876 965 m 509 1135 q 547 1118 524 1138 q 662 1072 601 1072 q 681 1073 671 1072 q 817 1159 764 1083 l 725 1225 q 667 1185 700 1190 q 621 1204 646 1183 q 486 1246 555 1261 q 368 1147 408 1231 l 469 1097 l 469 1097 q 509 1135 487 1131 z "},"ò":{"ha":1128,"x_min":81,"x_max":1046,"o":"m 819 227 l 469 227 l 819 578 l 819 227 m 309 738 l 659 738 l 309 388 l 309 738 m 252 965 q 132 916 181 965 q 81 795 81 865 l 81 170 q 132 50 81 100 q 252 0 181 0 l 876 0 q 997 50 947 0 q 1046 170 1046 100 l 1046 795 q 997 916 1046 865 q 876 965 947 965 l 252 965 m 668 1137 l 541 1265 l 460 1184 l 588 1057 l 668 1137 z "},"ó":{"ha":1128,"x_min":81,"x_max":1046,"o":"m 819 227 l 469 227 l 819 578 l 819 227 m 309 738 l 659 738 l 309 388 l 309 738 m 252 965 q 132 916 181 965 q 81 795 81 865 l 81 170 q 132 50 81 100 q 252 0 181 0 l 876 0 q 997 50 947 0 q 1046 170 1046 100 l 1046 795 q 997 916 1046 865 q 876 965 947 965 l 252 965 m 541 1057 l 668 1184 l 588 1265 l 460 1137 l 541 1057 z "},"ô":{"ha":1128,"x_min":81,"x_max":1046,"o":"m 819 227 l 469 227 l 819 578 l 819 227 m 309 738 l 659 738 l 309 388 l 309 738 m 252 965 q 132 916 181 965 q 81 795 81 865 l 81 170 q 132 50 81 100 q 252 0 181 0 l 876 0 q 997 50 947 0 q 1046 170 1046 100 l 1046 795 q 997 916 1046 865 q 876 965 947 965 l 252 965 m 490 1044 l 564 1117 l 637 1044 l 718 1124 l 564 1278 l 410 1124 l 490 1044 z "},"õ":{"ha":1128,"x_min":81,"x_max":1046,"o":"m 819 227 l 469 227 l 819 578 l 819 227 m 309 738 l 659 738 l 309 388 l 309 738 m 252 965 q 132 916 181 965 q 81 795 81 865 l 81 170 q 132 50 81 100 q 252 0 181 0 l 876 0 q 997 50 947 0 q 1046 170 1046 100 l 1046 795 q 997 916 1046 865 q 876 965 947 965 l 252 965 m 481 1135 q 518 1118 495 1138 q 634 1072 572 1072 q 652 1073 643 1072 q 789 1159 735 1083 l 696 1225 q 639 1185 671 1190 q 593 1204 617 1183 q 458 1246 527 1261 q 339 1147 380 1231 l 441 1097 l 441 1097 q 481 1135 458 1131 z "},"ö":{"ha":1128,"x_min":81,"x_max":1046,"o":"m 819 227 l 469 227 l 819 578 l 819 227 m 309 738 l 659 738 l 309 388 l 309 738 m 252 965 q 132 916 181 965 q 81 795 81 865 l 81 170 q 132 50 81 100 q 252 0 181 0 l 876 0 q 997 50 947 0 q 1046 170 1046 100 l 1046 795 q 997 916 1046 865 q 876 965 947 965 l 252 965 m 522 1217 l 408 1217 l 408 1104 l 522 1104 l 522 1217 m 606 1104 l 720 1104 l 720 1217 l 606 1217 l 606 1104 z "},"ø":{"ha":1261,"x_min":81,"x_max":1180,"o":"m 886 227 l 543 227 l 711 403 l 886 578 l 886 227 m 375 738 l 719 738 l 549 562 l 375 388 l 375 738 m 1016 1047 l 937 965 l 318 965 q 198 916 248 965 q 148 795 148 865 l 148 170 q 150 146 148 159 l 81 75 l 245 -82 l 324 0 l 943 0 q 1063 50 1013 0 q 1114 170 1114 100 l 1114 795 q 1112 819 1114 807 l 1180 890 l 1016 1047 z "},"ù":{"ha":1128,"x_min":81,"x_max":1046,"o":"m 819 227 l 309 227 l 309 965 l 81 965 l 81 170 q 132 50 81 100 q 252 0 181 0 l 876 0 q 997 50 947 0 q 1046 170 1046 100 l 1046 965 l 819 965 l 819 227 m 668 1137 l 541 1265 l 460 1184 l 588 1057 l 668 1137 z "},"ú":{"ha":1128,"x_min":81,"x_max":1046,"o":"m 819 227 l 309 227 l 309 965 l 81 965 l 81 170 q 132 50 81 100 q 252 0 181 0 l 876 0 q 997 50 947 0 q 1046 170 1046 100 l 1046 965 l 819 965 l 819 227 m 541 1057 l 668 1184 l 588 1265 l 460 1137 l 541 1057 z "},"û":{"ha":1128,"x_min":81,"x_max":1046,"o":"m 819 227 l 309 227 l 309 965 l 81 965 l 81 170 q 132 50 81 100 q 252 0 181 0 l 876 0 q 997 50 947 0 q 1046 170 1046 100 l 1046 965 l 819 965 l 819 227 m 410 1124 l 490 1044 l 564 1117 l 637 1044 l 718 1124 l 564 1278 l 410 1124 z "},"ü":{"ha":1128,"x_min":81,"x_max":1046,"o":"m 819 227 l 309 227 l 309 965 l 81 965 l 81 170 q 132 50 81 100 q 252 0 181 0 l 876 0 q 997 50 947 0 q 1046 170 1046 100 l 1046 965 l 819 965 l 819 227 m 522 1217 l 408 1217 l 408 1104 l 522 1104 l 522 1217 m 606 1104 l 720 1104 l 720 1217 l 606 1217 l 606 1104 z "},"ý":{"ha":1150,"x_min":81,"x_max":1069,"o":"m 792 965 l 575 653 l 358 965 l 81 965 l 462 418 l 462 0 l 689 0 l 689 418 l 1069 965 l 792 965 m 599 1265 l 471 1137 l 551 1057 l 680 1184 l 599 1265 z "},"þ":{"ha":1128,"x_min":81,"x_max":1046,"o":"m 819 369 l 309 369 l 309 596 l 819 596 l 819 369 m 309 823 l 309 965 l 81 965 l 81 0 l 309 0 l 309 142 l 876 142 q 997 192 947 142 q 1046 313 1046 242 l 1046 653 q 997 773 1046 724 q 876 823 947 823 l 309 823 z "},"ÿ":{"ha":1150,"x_min":81,"x_max":1069,"o":"m 792 965 l 575 653 l 358 965 l 81 965 l 462 418 l 462 0 l 689 0 l 689 418 l 1069 965 l 792 965 m 419 1104 l 532 1104 l 532 1217 l 419 1217 l 419 1104 m 618 1104 l 731 1104 l 731 1217 l 618 1217 l 618 1104 z "},"ı":{"ha":390,"x_min":81,"x_max":309,"o":"m 81 0 l 309 0 l 309 965 l 81 965 l 81 0 z "},"‘":{"ha":276,"x_min":81,"x_max":195,"o":"m 81 739 l 195 739 l 195 966 l 81 966 l 81 739 z "},"’":{"ha":276,"x_min":81,"x_max":195,"o":"m 81 739 l 195 739 l 195 966 l 81 966 l 81 739 z "},"“":{"ha":418,"x_min":81,"x_max":337,"o":"m 81 739 l 195 739 l 195 966 l 81 966 l 81 739 m 223 739 l 337 739 l 337 966 l 223 966 l 223 739 z "},"”":{"ha":418,"x_min":81,"x_max":337,"o":"m 81 739 l 195 739 l 195 966 l 81 966 l 81 739 m 223 739 l 337 739 l 337 966 l 223 966 l 223 739 z "},"−":{"ha":1128,"x_min":81,"x_max":1046,"o":"m 81 368 l 1046 368 l 1046 595 l 81 595 l 81 368 z "},"":{"ha":728,"x_min":0,"x_max":0,"o":""},"":{"ha":733,"x_min":0,"x_max":0,"o":""}}}
